<?xml version="1.0" encoding="UTF-8"?><svg id="Layer_2" xmlns="http://www.w3.org/2000/svg" viewBox="0 0 290.19 113"><defs><style>.cls-1{fill:#fff;}.cls-2{fill:#a7e600;}</style></defs><g id="Layer_1-2"><path class="cls-2" d="m16.07,0h274.12v84.72c0,10.64-8.64,19.28-19.28,19.28H0V16.07C0,7.2,7.2,0,16.07,0Z"/><path class="cls-1" d="m29.02,25.97c0-3.12,2.38-5.5,5.5-5.5s5.59,2.38,5.59,5.5v21.53c3.57-5.04,8.61-9.07,16.49-9.07,11.36,0,22.45,8.98,22.45,25.1v.18c0,16.03-10.99,25.1-22.45,25.1-8.06,0-13.1-4.03-16.49-8.52v2.47c0,3.02-2.47,5.5-5.59,5.5s-5.5-2.47-5.5-5.5V25.97Zm38.75,37.74v-.18c0-9.34-6.32-15.48-13.83-15.48s-14.11,6.23-14.11,15.48v.18c0,9.25,6.6,15.48,14.11,15.48s13.83-5.96,13.83-15.48Z"/><path class="cls-1" d="m90.31,26.43c0-3.3,2.75-5.41,6.32-5.41s6.32,2.11,6.32,5.41v.55c0,3.3-2.75,5.5-6.32,5.5s-6.32-2.2-6.32-5.5v-.55Zm.82,18.05c0-3.12,2.38-5.59,5.5-5.59s5.59,2.47,5.59,5.59v38.29c0,3.12-2.47,5.5-5.59,5.5s-5.5-2.38-5.5-5.5v-38.29Z"/><path class="cls-1" d="m118.99,74.43v-25.47h-1.83c-2.66,0-4.76-2.11-4.76-4.76s2.11-4.76,4.76-4.76h1.83v-8.25c0-3.02,2.47-5.5,5.59-5.5s5.5,2.47,5.5,5.5v8.25h8.7c2.66,0,4.86,2.11,4.86,4.76s-2.2,4.76-4.86,4.76h-8.7v23.73c0,4.31,2.2,6.05,5.95,6.05,1.28,0,2.38-.28,2.75-.28,2.47,0,4.67,2.02,4.67,4.58,0,2.02-1.37,3.66-2.93,4.31-2.38.82-4.67,1.28-7.6,1.28-8.15,0-13.93-3.57-13.93-14.2Z"/><path class="cls-1" d="m200.52,82.77c0,3.12-2.47,5.5-5.5,5.5s-5.59-2.38-5.59-5.5v-3.02c-3.57,5.04-8.61,9.07-16.49,9.07-11.36,0-22.45-9.07-22.45-25.1v-.18c0-16.03,10.9-25.1,22.45-25.1,7.97,0,13.01,3.94,16.49,8.52v-20.98c0-3.12,2.47-5.5,5.5-5.5s5.59,2.38,5.59,5.5v56.8Zm-38.84-19.24v.18c0,9.34,6.41,15.48,13.93,15.48s14.02-6.23,14.02-15.48v-.18c0-9.34-6.6-15.48-14.02-15.48s-13.93,5.86-13.93,15.48Z"/><path class="cls-1" d="m214.26,26.43c0-3.3,2.75-5.41,6.32-5.41s6.32,2.11,6.32,5.41v.55c0,3.3-2.75,5.5-6.32,5.5s-6.32-2.2-6.32-5.5v-.55Zm.83,18.05c0-3.12,2.38-5.59,5.5-5.59s5.59,2.47,5.59,5.59v38.29c0,3.12-2.47,5.5-5.59,5.5s-5.5-2.38-5.5-5.5v-38.29Z"/><path class="cls-1" d="m243.12,48.96h-1.92c-2.57,0-4.67-2.02-4.67-4.58s2.11-4.67,4.67-4.67h1.92v-3.57c0-5.31,1.37-9.34,3.94-11.91,2.56-2.57,6.14-3.85,10.9-3.85,2.2,0,4.03.18,5.59.46,2.02.27,3.85,2.11,3.85,4.58s-2.11,4.67-4.67,4.58c-.64-.09-1.56-.18-2.29-.18-4.21,0-6.41,2.29-6.41,7.33v2.66h8.61c2.66,0,4.67,2.02,4.67,4.58s-2.11,4.58-4.67,4.58h-8.43v33.8c0,3.02-2.47,5.5-5.59,5.5s-5.5-2.47-5.5-5.5v-33.8Z"/></g></svg>